<?xml version="1.0" encoding="UTF-8" standalone="no"?>
<svg
   xmlns:dc="http://purl.org/dc/elements/1.1/"
   xmlns:cc="http://creativecommons.org/ns#"
   xmlns:rdf="http://www.w3.org/1999/02/22-rdf-syntax-ns#"
   xmlns:svg="http://www.w3.org/2000/svg"
   xmlns="http://www.w3.org/2000/svg"
   viewBox="0 0 311.74435 273.99712"
   version="1.0"
   id="svg2"
   height="292.26361"
   width="332.52731">
  <defs
     id="defs4" />
  <metadata
     id="metadata7">
    <rdf:RDF>
      <cc:Work
         rdf:about="">
        <dc:format>image/svg+xml</dc:format>
        <dc:type
           rdf:resource="http://purl.org/dc/dcmitype/StillImage" />
        <dc:title></dc:title>
      </cc:Work>
    </rdf:RDF>
  </metadata>
  <g
     transform="matrix(3.4729059,0,0,3.4729059,-393.19531,-100.50611)"
     id="g834">
    <path
       id="path3180"
       d="m 142.57003,31.282665 c -5.8392,0.494201 -11.85716,3.778568 -16.07537,11.19205 -3.78073,7.213746 -4.41669,18.142486 -2.83816,27.266588 1.95501,11.688338 7.62457,21.739346 14.56423,23.736561 6.516,1.984479 13.26318,-1.194945 18.86391,-7.129547 4.22357,-4.431938 8.23698,-10.818485 9.51491,-19.487133 1.65701,-10.515874 -1.40601,-22.287737 -6.62005,-27.857863 -4.9609,-5.526133 -10.9336,-7.48499 -16.72647,-7.750203 -0.22766,0.0099 -0.45534,0.01967 -0.683,0.02956 z"
       style="fill:#ff6600;fill-opacity:1;fill-rule:nonzero;stroke:none;stroke-width:0.62070143;stroke-linecap:round;stroke-linejoin:round;stroke-miterlimit:4;stroke-dasharray:none;stroke-dashoffset:200;stroke-opacity:1" />
    <ellipse
       id="path3190"
       style="fill:#feda00;fill-opacity:1;fill-rule:nonzero;stroke:none;stroke-width:1.9500668"
       cx="178.0654"
       cy="92.226799"
       rx="15.120144"
       ry="13.581159" />
  </g>
  <flowRoot
     xml:space="preserve"
     id="flowRoot840"
     style="font-style:normal;font-weight:normal;font-size:40px;line-height:125%;font-family:sans-serif;letter-spacing:0px;word-spacing:0px;fill:#000000;fill-opacity:1;stroke:none;stroke-width:1px;stroke-linecap:butt;stroke-linejoin:miter;stroke-opacity:1"
     transform="matrix(0.93749997,0,0,0.93749997,-33.073666,-31.428358)"><flowRegion
       id="flowRegion842"
       style="fill:#000000;stroke:none"><rect
         id="rect844"
         width="241.43697"
         height="42.502354"
         x="65.52446"
         y="299.39099"
         style="fill:#000000;stroke:none" /></flowRegion><flowPara
       id="flowPara846">migasfree</flowPara></flowRoot></svg>
