<?xml version="1.0" encoding="UTF-8" standalone="no"?>
<!-- Created with Inkscape (http://www.inkscape.org/) -->

<svg
   xmlns:dc="http://purl.org/dc/elements/1.1/"
   xmlns:cc="http://creativecommons.org/ns#"
   xmlns:rdf="http://www.w3.org/1999/02/22-rdf-syntax-ns#"
   xmlns:svg="http://www.w3.org/2000/svg"
   xmlns="http://www.w3.org/2000/svg"
   xmlns:inkscape="http://www.inkscape.org/namespaces/inkscape"
   version="1.0"
   width="47.999992"
   height="48"
   id="svg2">
  <defs
     id="defs4">
    <inkscape:path-effect
       effect="bend_path"
       id="path-effect2627" />
  </defs>
  <metadata
     id="metadata7">
    <rdf:RDF>
      <cc:Work
         rdf:about="">
        <dc:format>image/svg+xml</dc:format>
        <dc:type
           rdf:resource="http://purl.org/dc/dcmitype/StillImage" />
        <dc:title></dc:title>
      </cc:Work>
    </rdf:RDF>
  </metadata>
  <g
     transform="translate(-409.93872,-324.46271)"
     id="layer1">
    <g
       transform="matrix(0.1752836,0,0,0.1752836,357.87637,288.17239)"
       id="g2385">
      <path
         d="m 359.84121,422.66665 c 17.16887,8.15768 200.19256,-14.53545 190.65916,-21.98127 0.25846,-53.82004 -72.75382,-140.39226 -72.75382,-140.39226 -97.63364,2.19781 -156.7331,25.62844 -156.7331,33.5001 -6.16605,0 -12.13088,34.92399 38.98938,129.17879"
         id="path7004"
         style="fill:none;stroke:#ff6600;stroke-width:40;stroke-linecap:round;stroke-linejoin:round;stroke-miterlimit:4;stroke-opacity:1;stroke-dasharray:none" />
      <path
         d="m 99,188.98618 c 0.333333,0 0.666667,0 0,0 z"
         transform="translate(239.75989,167.58713)"
         id="path4849"
         style="fill:none;stroke:#000000;stroke-width:1px;stroke-linecap:butt;stroke-linejoin:miter;stroke-opacity:1" />
      <path
         d="m 422.52326,249.90699 c -6.39981,0.53506 -12.99555,4.09097 -17.61874,12.11738 -4.14372,7.81016 -4.84073,19.64246 -3.11065,29.52092 2.14271,12.6547 8.35659,23.5367 15.96252,25.69904 7.1416,2.14855 14.53656,-1.29374 20.67501,-7.719 4.62907,-4.79836 9.0278,-11.71293 10.42843,-21.09828 1.81609,-11.3853 -1.541,-24.13043 -7.25564,-30.16108 -5.43719,-5.98302 -11.98332,-8.10383 -18.33235,-8.39097 -0.24952,0.0107 -0.49906,0.0213 -0.74858,0.032 l 0,-1e-5 z"
         id="path3180"
         style="fill:#feda00;fill-opacity:1;fill-rule:nonzero;stroke:#feda00;stroke-width:0.67614418;stroke-linecap:round;stroke-linejoin:round;stroke-miterlimit:4;stroke-opacity:1;stroke-dasharray:none;stroke-dashoffset:200" />
      <path
         d="m 215,100.2803 a 9,6 0 1 1 -18,0 9,6 0 1 1 18,0 z"
         transform="matrix(1.8413123,0,0,2.4506692,82.116143,70.135995)"
         id="path3190"
         style="fill:#feda00;fill-opacity:1;fill-rule:nonzero;stroke:none" />
    </g>
  </g>
</svg>
